<svg xmlns="http://www.w3.org/2000/svg" width="805" height="600"><rect width="805" height="600" x="0" y="0" fill="#FFFFFF" id="backgorund"/><g id="viz" transform="translate(20,20)"><g id="lines" fill="none"><path d="M0,0L191.25,222.15613382899625L382.5,0L573.75,0L765,236.35862068965514" stroke="#e377c2" stroke-width="1" stroke-opacity="0.5"/><path d="M0,70L191.25,309.8884758364313L382.5,0L573.75,560L765,83.4206896551724" stroke="#9467bd" stroke-width="1" stroke-opacity="0.5"/><path d="M0,140L191.25,47.8810408921933L382.5,0L573.75,0L765,100.41379310344827" stroke="#2ca02c" stroke-width="1" stroke-opacity="0.5"/><path d="M0,210L191.25,164.6096654275093L382.5,0L573.75,0L765,217.82068965517243" stroke="#ff7f0e" stroke-width="1" stroke-opacity="0.5"/><path d="M0,280L191.25,560L382.5,560L573.75,0L765,560" stroke="#d62728" stroke-width="1" stroke-opacity="0.5"/><path d="M0,350L191.25,326.8401486988849L382.5,0L573.75,0L765,0" stroke="#8c564b" stroke-width="1" stroke-opacity="0.5"/><path d="M0,420L191.25,0L382.5,0L573.75,0L765,152.16551724137932" stroke="#1f77b4" stroke-width="1" stroke-opacity="0.5"/><path d="M0,560L191.25,259.628252788104L382.5,373.3333333333333L573.75,0L765,155.25517241379308" stroke="#7f7f7f" stroke-width="1" stroke-opacity="0.5"/></g><g><g transform="translate(0,0)" fill="none" font-size="10" font-family="sans-serif" text-anchor="end"><path class="domain" stroke="currentColor" d="M-6,0.5H0.5V560.5H-6"/><g class="tick" opacity="1" transform="translate(0,0.5)"><line stroke="currentColor" x2="-6"/><text fill="currentColor" x="-9" dy="0.32em">1</text></g><g class="tick" opacity="1" transform="translate(0,70.5)"><line stroke="currentColor" x2="-6"/><text fill="currentColor" x="-9" dy="0.32em">2</text></g><g class="tick" opacity="1" transform="translate(0,140.5)"><line stroke="currentColor" x2="-6"/><text fill="currentColor" x="-9" dy="0.32em">3</text></g><g class="tick" opacity="1" transform="translate(0,210.5)"><line stroke="currentColor" x2="-6"/><text fill="currentColor" x="-9" dy="0.32em">4</text></g><g class="tick" opacity="1" transform="translate(0,280.5)"><line stroke="currentColor" x2="-6"/><text fill="currentColor" x="-9" dy="0.32em">5</text></g><g class="tick" opacity="1" transform="translate(0,350.5)"><line stroke="currentColor" x2="-6"/><text fill="currentColor" x="-9" dy="0.32em">6</text></g><g class="tick" opacity="1" transform="translate(0,420.5)"><line stroke="currentColor" x2="-6"/><text fill="currentColor" x="-9" dy="0.32em">7</text></g><g class="tick" opacity="1" transform="translate(0,490.5)"><line stroke="currentColor" x2="-6"/><text fill="currentColor" x="-9" dy="0.32em">8</text></g><g class="tick" opacity="1" transform="translate(0,560.5)"><line stroke="currentColor" x2="-6"/><text fill="currentColor" x="-9" dy="0.32em">9</text></g><text y="-6" text-anchor="start" fill="currentColor">Week</text></g><g transform="translate(191.25,0)" fill="none" font-size="10" font-family="sans-serif" text-anchor="end"><path class="domain" stroke="currentColor" d="M-6,0.5H0.5V560.5H-6"/><g class="tick" opacity="1" transform="translate(0,24.44052044609665)"><line stroke="currentColor" x2="-6"/><text fill="currentColor" x="-9" dy="0.32em">50</text></g><g class="tick" opacity="1" transform="translate(0,98.7899628252788)"><line stroke="currentColor" x2="-6"/><text fill="currentColor" x="-9" dy="0.32em">55</text></g><g class="tick" opacity="1" transform="translate(0,173.13940520446099)"><line stroke="currentColor" x2="-6"/><text fill="currentColor" x="-9" dy="0.32em">60</text></g><g class="tick" opacity="1" transform="translate(0,247.48884758364315)"><line stroke="currentColor" x2="-6"/><text fill="currentColor" x="-9" dy="0.32em">65</text></g><g class="tick" opacity="1" transform="translate(0,321.83828996282534)"><line stroke="currentColor" x2="-6"/><text fill="currentColor" x="-9" dy="0.32em">70</text></g><g class="tick" opacity="1" transform="translate(0,396.1877323420075)"><line stroke="currentColor" x2="-6"/><text fill="currentColor" x="-9" dy="0.32em">75</text></g><g class="tick" opacity="1" transform="translate(0,470.5371747211896)"><line stroke="currentColor" x2="-6"/><text fill="currentColor" x="-9" dy="0.32em">80</text></g><g class="tick" opacity="1" transform="translate(0,544.8866171003718)"><line stroke="currentColor" x2="-6"/><text fill="currentColor" x="-9" dy="0.32em">85</text></g><text y="-6" text-anchor="start" fill="currentColor">Cmp%</text></g><g transform="translate(382.5,0)" fill="none" font-size="10" font-family="sans-serif" text-anchor="end"><path class="domain" stroke="currentColor" d="M-6,0.5H0.5V560.5H-6"/><g class="tick" opacity="1" transform="translate(0,0.5)"><line stroke="currentColor" x2="-6"/><text fill="currentColor" x="-9" dy="0.32em">1.0</text></g><g class="tick" opacity="1" transform="translate(0,37.83333333333333)"><line stroke="currentColor" x2="-6"/><text fill="currentColor" x="-9" dy="0.32em">1.2</text></g><g class="tick" opacity="1" transform="translate(0,75.16666666666666)"><line stroke="currentColor" x2="-6"/><text fill="currentColor" x="-9" dy="0.32em">1.4</text></g><g class="tick" opacity="1" transform="translate(0,112.50000000000003)"><line stroke="currentColor" x2="-6"/><text fill="currentColor" x="-9" dy="0.32em">1.6</text></g><g class="tick" opacity="1" transform="translate(0,149.83333333333334)"><line stroke="currentColor" x2="-6"/><text fill="currentColor" x="-9" dy="0.32em">1.8</text></g><g class="tick" opacity="1" transform="translate(0,187.16666666666666)"><line stroke="currentColor" x2="-6"/><text fill="currentColor" x="-9" dy="0.32em">2.0</text></g><g class="tick" opacity="1" transform="translate(0,224.50000000000006)"><line stroke="currentColor" x2="-6"/><text fill="currentColor" x="-9" dy="0.32em">2.2</text></g><g class="tick" opacity="1" transform="translate(0,261.8333333333333)"><line stroke="currentColor" x2="-6"/><text fill="currentColor" x="-9" dy="0.32em">2.4</text></g><g class="tick" opacity="1" transform="translate(0,299.1666666666667)"><line stroke="currentColor" x2="-6"/><text fill="currentColor" x="-9" dy="0.32em">2.6</text></g><g class="tick" opacity="1" transform="translate(0,336.5)"><line stroke="currentColor" x2="-6"/><text fill="currentColor" x="-9" dy="0.32em">2.8</text></g><g class="tick" opacity="1" transform="translate(0,373.8333333333333)"><line stroke="currentColor" x2="-6"/><text fill="currentColor" x="-9" dy="0.32em">3.0</text></g><g class="tick" opacity="1" transform="translate(0,411.1666666666667)"><line stroke="currentColor" x2="-6"/><text fill="currentColor" x="-9" dy="0.32em">3.2</text></g><g class="tick" opacity="1" transform="translate(0,448.49999999999994)"><line stroke="currentColor" x2="-6"/><text fill="currentColor" x="-9" dy="0.32em">3.4</text></g><g class="tick" opacity="1" transform="translate(0,485.83333333333337)"><line stroke="currentColor" x2="-6"/><text fill="currentColor" x="-9" dy="0.32em">3.6</text></g><g class="tick" opacity="1" transform="translate(0,523.1666666666666)"><line stroke="currentColor" x2="-6"/><text fill="currentColor" x="-9" dy="0.32em">3.8</text></g><g class="tick" opacity="1" transform="translate(0,560.5)"><line stroke="currentColor" x2="-6"/><text fill="currentColor" x="-9" dy="0.32em">4.0</text></g><text y="-6" text-anchor="start" fill="currentColor">TD_pass</text></g><g transform="translate(573.75,0)" fill="none" font-size="10" font-family="sans-serif" text-anchor="end"><path class="domain" stroke="currentColor" d="M-6,0.5H0.5V560.5H-6"/><g class="tick" opacity="1" transform="translate(0,0.5)"><line stroke="currentColor" x2="-6"/><text fill="currentColor" x="-9" dy="0.32em">0.0</text></g><g class="tick" opacity="1" transform="translate(0,56.5)"><line stroke="currentColor" x2="-6"/><text fill="currentColor" x="-9" dy="0.32em">0.2</text></g><g class="tick" opacity="1" transform="translate(0,112.5)"><line stroke="currentColor" x2="-6"/><text fill="currentColor" x="-9" dy="0.32em">0.4</text></g><g class="tick" opacity="1" transform="translate(0,168.5)"><line stroke="currentColor" x2="-6"/><text fill="currentColor" x="-9" dy="0.32em">0.6</text></g><g class="tick" opacity="1" transform="translate(0,224.5)"><line stroke="currentColor" x2="-6"/><text fill="currentColor" x="-9" dy="0.32em">0.8</text></g><g class="tick" opacity="1" transform="translate(0,280.5)"><line stroke="currentColor" x2="-6"/><text fill="currentColor" x="-9" dy="0.32em">1.0</text></g><g class="tick" opacity="1" transform="translate(0,336.5)"><line stroke="currentColor" x2="-6"/><text fill="currentColor" x="-9" dy="0.32em">1.2</text></g><g class="tick" opacity="1" transform="translate(0,392.5)"><line stroke="currentColor" x2="-6"/><text fill="currentColor" x="-9" dy="0.32em">1.4</text></g><g class="tick" opacity="1" transform="translate(0,448.5)"><line stroke="currentColor" x2="-6"/><text fill="currentColor" x="-9" dy="0.32em">1.6</text></g><g class="tick" opacity="1" transform="translate(0,504.5)"><line stroke="currentColor" x2="-6"/><text fill="currentColor" x="-9" dy="0.32em">1.8</text></g><g class="tick" opacity="1" transform="translate(0,560.5)"><line stroke="currentColor" x2="-6"/><text fill="currentColor" x="-9" dy="0.32em">2.0</text></g><text y="-6" text-anchor="start" fill="currentColor">TD_rush</text></g><g transform="translate(765,0)" fill="none" font-size="10" font-family="sans-serif" text-anchor="end"><path class="domain" stroke="currentColor" d="M-6,0.5H0.5V560.5H-6"/><g class="tick" opacity="1" transform="translate(0,15.948275862068964)"><line stroke="currentColor" x2="-6"/><text fill="currentColor" x="-9" dy="0.32em">70</text></g><g class="tick" opacity="1" transform="translate(0,93.1896551724138)"><line stroke="currentColor" x2="-6"/><text fill="currentColor" x="-9" dy="0.32em">80</text></g><g class="tick" opacity="1" transform="translate(0,170.4310344827586)"><line stroke="currentColor" x2="-6"/><text fill="currentColor" x="-9" dy="0.32em">90</text></g><g class="tick" opacity="1" transform="translate(0,247.67241379310343)"><line stroke="currentColor" x2="-6"/><text fill="currentColor" x="-9" dy="0.32em">100</text></g><g class="tick" opacity="1" transform="translate(0,324.9137931034483)"><line stroke="currentColor" x2="-6"/><text fill="currentColor" x="-9" dy="0.32em">110</text></g><g class="tick" opacity="1" transform="translate(0,402.1551724137931)"><line stroke="currentColor" x2="-6"/><text fill="currentColor" x="-9" dy="0.32em">120</text></g><g class="tick" opacity="1" transform="translate(0,479.39655172413796)"><line stroke="currentColor" x2="-6"/><text fill="currentColor" x="-9" dy="0.32em">130</text></g><g class="tick" opacity="1" transform="translate(0,556.6379310344828)"><line stroke="currentColor" x2="-6"/><text fill="currentColor" x="-9" dy="0.32em">140</text></g><text y="-6" text-anchor="start" fill="currentColor">Rate</text></g></g></g></svg>